<svg xmlns="http://www.w3.org/2000/svg" width="452.923" height="159.851" viewBox="0 0 20742.6 7320.74" shape-rendering="geometricPrecision" text-rendering="geometricPrecision" image-rendering="optimizeQuality" fill-rule="evenodd" clip-rule="evenodd"><defs><style>.prefix__fil0,.prefix__fil1{fill:#fefefe;fill-rule:nonzero}.prefix__fil1{fill:#fdfdfe}</style></defs><g id="prefix__图层_x0020_1"><g id="prefix___2674244419856"><path class="prefix__fil0" d="M1269 5725.65c44.14 0 52.98-27.97 58.87-201.57 35.29 29.44 111.8 58.89 158.88 70.64-17.66 232.43-64.74 295.68-201.55 295.68h-169.18c-164.75 0-203-54.42-203-220.64v-357.49H698.25c-32.37 261.87-107.39 481.04-445.75 609.02-20.6-47.06-69.13-117.7-108.84-154.45 292.73-95.62 348.62-260.4 370.69-454.57H167.2v-169.2h563.41v-238.3H477.58c-33.86 75.04-72.08 145.62-113.27 200.09-39.74-25.03-113.29-60.36-154.48-76.51 95.62-120.66 164.77-319.23 195.68-469.29l179.44 35.33c-13.22 45.59-27.94 92.67-44.14 142.7h189.8V4538.5H908.6v198.59h450.14v167.67H908.6v238.3h564.88v169.2h-383.93v357.49c0 48.55 7.34 55.89 52.95 55.89H1269zM1963.36 5606.48c23.54 14.75 50.02 32.39 82.41 50.01 100.01 55.89 235.37 64.77 398.63 64.77 155.92 0 392.8-11.8 539.89-33.86-17.66 47.08-47.08 132.42-48.55 182.42-105.91 5.89-347.17 14.7-497.21 14.7-186.82 0-310.41-16.17-417.77-76.51-67.68-35.28-117.69-80.89-150.07-80.89-44.1 0-108.84 95.62-161.79 183.89l-117.69-166.25c67.64-72.06 136.78-126.53 200.04-154.45v-357.49h-170.63v-163.26h342.74v536.91zm-92.67-694.36c-44.1-67.64-145.62-175.01-223.58-248.59l123.55-97.09c79.47 69.17 185.36 169.2 233.9 235.37l-133.87 110.31zm516.33 417.79c-27.95 132.4-83.83 263.34-194.16 353.07-23.54-35.31-92.67-100.01-129.44-123.59 77.96-64.7 120.63-144.15 145.62-229.49h-166.22v-167.67h194.17c2.94-38.25 2.94-73.58 2.94-110.36v-92.67h-183.89v-169.15h183.89v-213.34h173.58v213.34h166.24v-210.39h175.03v210.39h167.71v169.15h-167.71v203.04h197.12v167.67h-197.12v330.99h-175.03v-330.99h-192.74zm26.5-275.09c0 35.31-1.49 69.17-2.96 107.42h169.2V4959.2h-166.24v95.62zM3371.2 5066.62c-67.68 67.64-145.66 129.46-219.22 169.15-19.09-38.22-57.36-95.62-89.71-127.95 86.79-35.33 179.46-100.03 248.59-172.14h-217.7V4797.4h114.74c-11.79-50.01-45.61-125.06-78-182.42l123.6-51.48c39.69 54.42 76.49 130.94 88.24 180.95l-119.16 52.95h148.6v-258.88h161.81v258.88h278.02v138.28h-214.77c66.21 38.25 148.6 86.81 173.59 104.44l-91.2 122.12c-32.39-30.91-89.75-79.45-145.64-123.59v160.37h-161.81v-132.4zm236.84 753.19c-29.43-22.1-67.68-48.55-111.82-75.05-98.56 75.05-216.24 128-348.64 164.78-16.2-39.72-50.02-101.54-79.43-130.93 105.9-23.58 204.46-61.78 288.32-113.31-69.13-36.75-142.7-70.59-208.89-98.56 26.47-38.2 54.44-83.81 83.86-133.83h-111.82V5291.7h183.89c13.22-29.44 25.01-57.41 35.29-85.33l154.47 27.92c-7.34 19.14-16.18 38.25-24.99 57.41h186.82l26.48-4.47 94.14 35.31c-35.31 129.47-94.14 235.39-169.16 320.7 39.69 22.05 75.02 44.14 104.43 64.72l-102.95 111.83zm-207.43-386.89c-14.71 27.94-29.41 54.44-44.14 77.94 39.72 19.14 80.92 39.72 119.16 60.31 41.2-41.16 76.49-86.75 102.99-138.25h-178.01zm397.19-817.94c-48.55 66.24-94.14 132.42-132.42 178.02l-111.8-50.02c33.86-51.48 73.58-130.93 97.1-185.36l147.11 57.36zm541.34 356.03c-27.94 205.93-72.08 378.05-141.21 522.22 67.66 116.2 157.37 208.87 267.72 269.23-38.24 30.86-89.75 94.14-113.27 138.23-101.5-63.25-182.4-147.11-248.61-250.07-83.86 111.83-189.76 200.04-326.57 269.21-16.18-35.31-61.79-108.84-92.67-142.68 148.56-66.22 257.44-158.92 332.46-280.98-42.67-92.67-75.02-195.65-104.44-307.48-23.54 47.08-50.01 91.22-77.98 130.94-23.54-29.39-89.71-86.81-125.04-111.78 117.69-153.03 182.42-401.62 216.24-664.93l158.88 23.52c-11.77 82.39-26.47 164.78-44.14 242.71h391.33v161.86h-92.69zm-323.63 0c22.07 117.65 51.48 230.96 89.73 335.4 33.82-100.03 57.36-210.39 72.09-335.4h-161.82zM5018.79 5318.16c-48.53 14.7-100.03 30.9-150.04 45.59v345.7c0 80.92-13.26 123.59-57.4 150.09-44.12 29.39-108.84 35.26-202.98 33.79-4.41-42.67-23.54-114.71-44.14-160.32 52.95 1.47 102.97 1.47 120.63 0 17.66 0 25.01-5.89 25.01-25.03v-297.15l-138.28 39.72-39.72-169.2c51.49-11.75 110.33-26.45 178.01-44.12v-258.89h-154.45V4816.5h154.45v-277.99h158.88v277.99h147.09v161.84h-147.09v217.73l129.44-35.31 20.6 157.39zm589.9-19.11v141.23h264.81v470.74h-157.41v-41.2h-356v42.67h-150.07v-472.21h235.37v-141.23h-226.53c-16.18 214.75-63.27 451.6-175.06 617.85-30.9-30.91-104.44-83.86-141.23-102.97 144.17-216.26 155.94-538.44 155.94-767.94v-448.64h807.61v425.13h-257.44v129.47h298.64v147.09h-298.64zm-163.29-147.09v-129.47h-216.24V5046c0 33.86 0 67.7-1.47 105.97h217.71zm-216.24-406.04v126.53h472.21v-126.53h-472.21zm486.94 838.53h-356v147.09h356v-147.09zM6957.68 5568.22h-913.54v-167.67h913.54v167.67zm351.58-483.96s-2.94 52.95-7.34 76.51c-36.8 414.85-75.02 589.88-145.66 659.05-48.55 51.48-97.09 64.7-175.05 72.06-60.32 4.4-166.24 2.93-273.64-1.47-2.93-51.49-30.88-125.02-67.64-175.03 116.21 10.28 235.37 10.28 285.39 10.28 33.82 0 57.36-1.47 79.43-17.67 48.53-36.75 83.85-182.42 110.33-461.88h-763.49l-151.52-1.47c47.08-176.54 102.97-461.93 135.36-682.6l179.44 17.64c-7.34 44.14-14.7 89.73-23.52 136.81h779.66v167.73h-810.55c-13.24 69.12-26.47 136.81-39.72 200.06h888.53zM8015.41 5425.53c-26.5-50.01-72.11-125.01-116.21-191.23v678.19h-173.61v-563.43c-45.61 116.2-98.56 225.09-157.41 303.03-17.64-52.95-60.31-119.14-86.77-161.81 92.67-127.98 180.92-332.46 226.53-510.46h-200.06v-166.25h217.71V4540h173.61v273.57h169.16v166.25H7899.2v35.31c50.01 52.97 177.97 205.94 205.93 242.73l-89.71 167.67zm698.74 306.01c7.37 0 14.71-2.94 17.66-8.81 5.89-7.36 8.83-22.1 10.3-54.44 1.45-29.43 4.43-101.54 4.43-188.29 33.82 27.92 82.36 54.42 126.5 69.12-1.47 79.45-7.34 182.42-17.66 226.56-7.36 42.67-22.07 70.59-45.61 89.73-23.54 19.11-57.36 26.47-91.2 26.47h-79.43c-33.82 0-75.02-13.24-101.5-39.74-26.47-29.39-38.25-63.23-38.25-189.76V4788.6h-189.76v308.9c0 248.65-33.82 604.61-248.63 817.94-26.48-33.86-100.03-95.62-139.72-117.72 194.17-192.7 210.32-481.02 210.32-701.7v-473.68h542.85v1035.63c0 36.8 0 57.41 4.41 64.77 4.41 5.87 8.81 8.81 14.7 8.81h20.6zM9982.23 5296.1c101.5 69.12 230.94 123.54 364.79 155.92-38.25 32.39-85.33 97.09-108.84 139.75-14.7-4.41-30.88-8.81-45.61-14.7v328.04h-169.16v-26.5h-173.58v35.33h-160.35v-464.87h247.14c-67.66-44.14-129.46-97.09-180.93-152.98h-257.44c-52.97 54.42-113.29 105.91-180.95 152.98h270.68v456.04h-167.69v-26.5h-155.96v35.33h-160.35v-345.73c-20.6 10.33-41.2 19.14-63.23 27.97-14.71-41.2-58.85-105.91-92.67-136.81 125.02-45.61 228-101.5 311.86-163.28h-279.51v-151.56h438.39c30.88-39.67 57.36-79.4 77.96-120.59H9073.1v-425.15h500.17v405.99l111.8 20.63c-19.13 41.2-42.67 80.92-66.21 119.12h305.99c-41.2-23.51-88.28-47.06-130.91-63.23l60.29-57.36h-157.41v-425.15h517.8v425.15H9963.1c52.95 24.98 107.37 55.89 141.23 82.39l-38.25 38.2h245.67v151.56h-329.51zm-573.73-550.19h-179.46v130.93h179.46v-130.93zm11.79 853.22h-155.96v127.98h155.96v-127.98zm603.12 127.98v-127.98h-173.58v127.98h173.58zm-169.18-850.28h192.72V4745.9h-192.72v130.93zM11000.19 5269.6c-41.14-36.78-123.54-97.09-189.76-142.68-52.97 75.04-138.28 150.04-270.65 211.85-23.56-35.31-72.11-89.73-110.36-117.7 150.04-58.83 225.09-130.94 261.87-204.47h-244.18v-136.81h98.56c-35.33-22.09-82.39-48.53-111.83-63.28 75.04-70.59 132.4-177.96 161.84-286.85l154.45 32.37c-8.81 27.97-17.64 57.36-29.44 86.81h364.84v135.34h-191.23v66.17c0 10.3 0 19.16-1.47 29.44h226.54v136.81h-242.71c61.76 32.33 208.87 116.2 247.12 141.23l-123.59 111.78zm-273.57-389.82c1.45-11.75 1.45-22.09 1.45-32.37v-63.25h-73.56c-20.58 35.33-44.14 67.64-67.64 95.62h139.75zm-83.86 411.92h959.12V5911h-179.48v-47.08h-607.57v48.55h-172.07v-620.78zm172.07 136.76v82.39h607.57v-82.39h-607.57zm607.57 295.71v-86.79h-607.57v86.79h607.57zm306.01-1078.29v557.55h-559.02v-557.55h559.02zm-173.61 154.45h-223.62v248.59h223.62v-248.59zM12449.21 4628.2c67.7 100.08 142.68 230.97 166.25 323.65l-158.86 63.28c-4.41-22.09-13.28-47.06-23.56-73.56-354.51 29.44-411.91 39.72-450.13 54.42-8.86-33.8-38.25-116.2-58.89-163.26 23.58-5.89 47.08-25.03 72.11-57.36 22.05-29.44 91.22-132.42 132.42-241.31l185.35 48.55c-41.2 83.86-100.06 170.65-155.96 241.29l214.79-13.28c-22.09-44.12-48.53-88.26-72.11-127.95l148.58-54.47zm92.67 1106.28c0 76.51-14.7 119.12-64.7 144.15-48.55 27.97-117.67 29.44-204.47 29.44-8.81-45.59-35.31-113.31-57.4-154.5 53 2.94 110.36 1.47 129.46 0 17.69 0 23.56-4.4 23.56-22.03v-98.56h-219.2v278.04h-161.79v-844.39h554.55v667.86zm-392.76-523.71v77.94h219.2v-77.94h-219.2zm219.2 292.73v-85.32h-219.2v85.32h219.2zm500.18-307.43c-170.65 0-213.32-50.06-213.32-210.38V4542.9h173.59v211.81c100.03-39.72 198.59-83.86 266.23-123.54l111.83 126.48c-111.83 54.42-250.12 100.03-378.07 138.28v86.81c0 52.95 8.83 58.83 64.72 58.83h158.85c48.6 0 57.41-22.05 64.77-150.05 35.31 26.5 104.43 52.97 152.98 63.25-19.11 188.29-66.19 241.29-200.06 241.29h-201.53zm194.17 553.1c51.49 0 60.31-27.92 67.66-175.03 36.78 24.99 105.9 51.49 152.98 63.25-17.64 205.93-64.72 264.76-204.47 264.76h-205.93c-172.12 0-216.26-51.49-216.26-211.81v-461.93h173.59V5427c104.44-41.14 205.93-89.75 276.57-136.76l114.73 127.95c-113.25 60.34-257.4 113.29-391.29 155.96v116.2c0 51.48 10.28 58.83 67.64 58.83h164.78zM13858.48 5528.55c-86.75 111.78-217.68 232.43-323.63 305.96-35.28-32.39-108.86-89.75-152.98-116.2 111.82-60.36 229.49-160.37 300.12-254.53l176.48 64.77zm295.73-150.11v342.81c0 85.28-17.69 129.4-82.39 157.37-63.25 26.5-145.64 27.97-254.53 27.97-8.81-51.48-38.2-125.06-63.23-170.65 75.04 2.93 164.78 2.93 189.76 2.93 25.03-1.45 32.39-5.87 32.39-23.51v-322.18c-338.34 27.92-401.62 36.75-451.65 55.89-7.34-30.9-32.32-111.83-50.01-154.45 58.83-7.39 114.78-32.37 207.45-79.45 44.14-20.62 123.54-61.76 220.62-119.17-230.96 14.75-279.51 23.56-311.84 36.78-7.34-33.84-32.37-107.37-50.01-150.04 35.28-4.41 69.12-25.03 111.78-55.89 32.39-19.16 107.37-75.05 183.89-145.64-113.31 7.36-225.09 13.22-333.93 16.17-2.94-44.14-25.03-113.25-41.2-152.98 358.96-13.22 767.89-51.48 1016.53-110.36l123.54 144.17c-151.51 36.78-332.46 63.28-522.24 82.39-75.04 73.58-160.32 142.7-247.12 204.51l294.2-14.75c72.11-50.01 142.7-102.95 207.4-158.85l126.53 113.25c-173.59 136.81-364.84 254.51-554.6 350.13l442.82-30.9c-27.97-30.91-55.89-60.31-83.86-86.81l132.4-69.12c111.78 101.48 230.97 239.77 288.34 333.93l-136.81 82.39c-22.05-36.8-52.97-82.39-91.22-130.94l-303.01 24.98zm220.62 78c113.31 79.45 261.87 194.17 333.93 275.09l-154.45 102.97c-64.7-78-207.4-200.06-322.18-283.92l142.7-94.14zM15345.76 5254.91c-5.87 48.55-4.4 117.67 0 152.98-350.13 80.92-410.44 101.5-450.16 125.06-8.83-33.84-35.33-117.7-55.89-161.84 38.25-8.81 70.59-39.72 116.18-94.14 20.63-22.05 57.41-70.59 103.02-135.34-114.78 13.26-150.09 22.09-172.14 33.84-10.28-36.78-39.72-125.06-61.76-175.06 32.32-7.36 55.89-38.22 88.26-85.28 30.86-45.61 125.01-223.62 175.03-391.34l178.01 82.39c-54.42 130.94-132.4 272.15-213.34 385.41l105.97-8.81c29.39-48.55 57.36-100.03 82.34-152.98l151.56 95.62c-72.11 127.95-160.39 257.42-251.59 372.18l204.51-42.67zm29.39 405.99c-164.73 69.17-344.21 139.75-486.91 192.7l-39.72-173.54c123.59-35.33 311.89-102.97 494.3-166.25l32.33 147.09zm314.84-383.93c-11.77 308.93-50.02 520.75-317.78 642.86-20.56-44.12-67.64-111.82-105.9-144.15 222.15-94.14 242.73-248.59 251.54-498.71h172.14zm376.58 44.14c-11.75-30.86-29.43-66.19-48.53-104.44-501.65 51.48-575.18 61.78-623.72 83.86-8.83-42.67-36.8-130.94-51.49-167.73 30.86-7.34 73.53-20.56 107.39-48.53 24.98-26.47 98.56-119.14 158.85-198.59h-230.96v-155.92h326.59c-14.7-45.61-36.75-108.89-57.36-157.44l164.78-41.2c27.92 54.47 60.29 128 73.51 172.14l-94.14 26.5h404.57v155.92h-382.46c-52.97 72.06-113.31 154.45-167.73 220.67l291.26-23.56c-23.52-36.8-47.08-72.06-69.12-104.44l133.87-66.22c79.4 101.55 170.62 239.84 210.34 330.99l-145.64 78zm-26.5 419.25c23.58 0 29.44-32.37 32.39-217.73 35.31 27.97 105.9 55.94 148.56 67.7-13.22 230.97-51.48 297.15-163.26 297.15h-101.5c-130.93 0-161.84-50.02-161.84-197.12v-414.85h172.14v413.38c0 45.61 2.93 51.48 23.51 51.48h50.01zM17056.6 5527.08c-88.26 176.48-255.99 304.49-579.63 382.46-14.7-44.14-58.83-111.83-97.09-150.09 238.36-51.48 379.54-127.95 463.4-232.38h-475.15v-147.16h553.13c44.14-127.95 48.53-286.85 54.42-476.61h185.36c-5.89 180.95-14.7 339.8-51.49 476.61h532.52v147.16h-585.47zm-500.18-514.88h-175.06v-335.45h538.44c-14.7-35.28-32.39-72.06-50.01-101.5l175.06-54.42c29.39 47.08 61.78 104.44 83.81 155.92h495.77v335.45h-183.88v-172.14h-884.14v172.14zm2.94 73.51c76.51 36.8 175.06 97.1 222.15 145.64l-104.44 129.47c-44.12-48.55-139.74-114.73-217.73-157.39l100.03-117.72zm258.93 61.78c-41.2-50.01-133.87-119.12-208.92-163.26l101.5-113.25c75.05 36.73 172.14 100.03 217.73 151.51l-110.31 125.01zm307.43 408.98c191.25 52.95 398.7 139.75 517.82 208.9l-107.37 139.75c-111.78-76.51-304.49-163.31-491.32-220.67l80.87-127.98zM18161.35 5587.37c-125.06 29.39-254.48 60.31-363.37 85.33l-27.92-135.34c98.56-17.69 236.84-48.55 378.07-79.45l13.22 129.46zm353.07-578.11c-48.59 42.62-95.62 80.87-145.67 114.73-19.11-33.86-70.59-107.39-100.03-141.23-5.89 85.33-13.22 167.73-20.58 233.9h113.25s-1.45 44.14-2.93 63.25c-17.64 364.83-36.8 508.99-80.94 559-30.84 38.27-64.7 50.02-111.78 55.89-38.25 4.41-108.84 4.41-179.48 1.47-1.45-42.67-17.62-100.03-42.67-139.75 64.77 5.94 126.53 7.41 153.03 7.41 24.99 0 36.75-2.94 51.49-17.69 26.45-29.39 44.12-135.34 57.36-392.76h-379.54c17.64-132.4 32.37-350.15 38.25-516.35l148.56 8.83c-5.87 116.23-16.15 254.46-26.5 372.18h114.78c16.17-130.94 29.39-311.89 38.25-479.57h-332.51v-147.09h485.49c-5.87 120.59-14.75 261.82-25.03 391.29 172.14-104.44 335.4-275.09 426.6-461.93l151.56 52.95c-11.8 23.58-25.03 47.08-38.25 70.64 98.56 111.78 242.73 232.43 373.65 303.01-29.43 44.14-63.28 125.06-79.45 173.61-44.14-29.44-88.28-61.78-133.87-100.03v113.25h-453.07v-125.01zm629.6 244.18c-52.95 148.58-117.7 320.7-178.01 447.18h175.06v147.11h-762v-147.11h439.83c61.78-133.87 132.42-332.46 166.25-481.02l158.86 33.84zm-651.69 364.79c-10.28-94.14-45.61-238.31-76.51-347.15l132.4-35.31c36.78 108.89 70.64 250.12 85.33 342.79l-141.23 39.67zm435.43-631.06c-75-66.19-145.64-136.83-207.4-208.87-54.44 76.45-117.72 145.62-182.42 208.87h389.82zm-204.47 589.91c-7.34-94.14-32.37-238.31-54.42-347.2l132.42-19.11c26.45 110.33 52.95 250.08 61.76 345.7l-139.75 20.62zM20598.92 5718.31v154.45h-1303.38v-154.45h556.07v-126.53h-428.07v-150.04h428.07v-111.83h179.48v111.83h450.13v150.04h-450.13v126.53h567.83zm-1135.71-781.16h-163.26v-280.98h564.88c-11.75-30.9-25.03-63.23-39.72-88.26l170.67-50.02c24.98 42.67 50.01 94.16 66.17 138.28h523.69v280.98h-155.9v117.67h-173.61c89.75 72.11 191.23 163.31 245.7 229.49l-138.28 94.14c-19.14-26.45-45.59-58.82-77.98-92.67-657.58 53-737.02 58.89-795.86 82.39-8.81-32.37-32.37-110.31-50.01-151.51 32.37-4.41 64.7-23.56 104.43-52.95 23.58-16.22 76.52-55.89 135.36-108.89h-216.28v-117.67zm7.41-122.12v89.75h937.07v-89.75h-937.07zm691.36 353.09c-26.45-23.58-52.95-44.14-76.47-64.72l72.06-48.59h-254.48c-52.95 50.06-111.82 97.14-170.65 141.26l429.54-27.95z"/></g><g id="prefix___2674244449776"><path class="prefix__fil1" d="M365.17 6912.31h-231.3l-63.56 195.73H0l211.8-620.19h77.11l212.66 620.19h-74.55l-61.85-195.73zm-17.81-55.06l-32.18-100.81c-23.73-70.34-43.2-137.26-64.39-210.15h-3.41c-20.32 73.72-40.66 139.81-63.52 210.15l-32.21 100.81h195.71zM550.54 6880.12c0-148.27 94.04-241.45 199.12-241.45 54.21 0 89.8 20.34 131.32 54.23l-3.41-79.64v-179.63h68.63v674.42h-56.76l-6.79-55.06h-1.68c-36.45 36.4-85.58 66.09-141.52 66.09-115.21 0-188.93-86.41-188.93-238.95zm327.04 115.26v-247.42c-41.51-36.44-77.1-50.84-116.92-50.84-77.94 0-138.09 75.38-138.09 182.16 0 112.67 47.44 181.3 131.32 181.3 44.05 0 83.03-22 123.69-65.2zM1036.68 6650.53h72.01l90.67 266.04c13.55 44.92 28.8 91.5 43.2 134.7h3.39c13.55-43.2 29.65-89.78 43.22-134.7l90.65-266.04h67.8l-163.54 457.52h-80.49l-166.91-457.52zM1490.7 6990.29c0-99.98 87.26-149.15 283.84-171.15.83-61.86-18.66-122.86-97.45-122.86-55.06 0-104.22 26.26-138.96 50.85l-27.97-48.29c39.83-26.31 104.22-60.17 177.94-60.17 111 0 155.07 75.4 155.07 185.55v283.82h-56.77l-5.94-55.94h-2.54c-44.05 37.28-96.6 66.97-154.21 66.97-75.4 0-133-45.75-133-128.78zm283.84 9.31v-133.89c-161.84 18.68-216.9 57.6-216.9 120.32 0 55.11 38.1 77.1 84.71 77.1 46.61 0 85.58-21.98 132.19-63.52zM1993.79 6650.53h55.94l6.75 66.92h2.54c44.07-43.2 91.51-78.77 154.21-78.77 95.74 0 139.79 61.83 139.79 178.75v290.62h-69.46v-282.14c0-88.14-27.12-127.07-90.65-127.07-48.31 0-83.03 25.41-130.49 74.55v334.66h-68.63v-457.52zM2470.61 6880.12c0-153.36 101.69-241.45 217.77-241.45 60.15 0 101.67 25.38 133.87 55.06l-36.44 45.77c-27.12-25.43-56.76-42.37-94.89-42.37-85.58 0-149.14 73.72-149.14 182.99 0 108.46 59.32 181.35 147.46 181.35 43.2 0 82.17-21.2 110.97-46.63l30.52 45.75c-40.68 36.45-91.5 58.49-147.44 58.49-120.32 0-212.68-88.12-212.68-238.95zM2879.69 6880.12c0-149.1 99.13-241.45 204.21-241.45 114.38 0 180.45 82.15 180.45 214.36 0 15.25-.85 30.48-3.38 41.49h-312.64c4.24 101.69 65.22 169.49 156.72 169.49 44.92 0 82.2-14.4 116.09-37.27l25.43 45.75c-39.83 25.38-86.42 46.58-149.98 46.58-120.32 0-216.9-88.95-216.9-238.95zm323.66-35.55c0-98.32-44.07-150-118.62-150-67.77 0-127.93 55.06-137.26 150h255.88zM3345.53 6880.12c0-148.27 94.04-241.45 199.12-241.45 54.21 0 89.8 20.34 131.32 54.23l-3.41-79.64v-179.63h68.63v674.42h-56.76l-6.79-55.06h-1.68c-36.45 36.4-85.58 66.09-141.52 66.09-115.21 0-188.93-86.41-188.93-238.95zm327.04 115.26v-247.42c-41.51-36.44-77.1-50.84-116.92-50.84-77.94 0-138.09 75.38-138.09 182.16 0 112.67 47.44 181.3 131.32 181.3 44.03 0 83.03-22 123.69-65.2zM4095.96 6487.86h152.48c190.66 0 289.79 112.67 289.79 307.53 0 194.9-99.13 312.66-287.25 312.66h-155.02v-620.19zm146.56 562.58c150.81 0 223.69-96.59 223.69-255.05 0-158.43-72.87-249.93-223.69-249.93h-76.25v504.98h76.25zM4638.84 6990.29c0-99.98 87.27-149.15 283.85-171.15.83-61.86-18.68-122.86-97.47-122.86-55.06 0-104.2 26.26-138.94 50.85l-27.97-48.29c39.83-26.31 104.22-60.17 177.94-60.17 111 0 155.06 75.4 155.06 185.55v283.82h-56.77l-5.92-55.94h-2.54c-44.07 37.28-96.6 66.97-154.21 66.97-75.42 0-133.02-45.75-133.02-128.78zm283.85 9.31v-133.89c-161.86 18.68-216.92 57.6-216.92 120.32 0 55.11 38.11 77.1 84.73 77.1 46.61 0 85.58-21.98 132.19-63.52zM5141.97 6969.97V6707.3h-69.46v-52.55l72.01-4.22 7.62-129.66h58.47v129.66h126.25v56.77h-126.25v265.16c0 55.94 16.95 89.83 72.02 89.83 16.95 0 38.13-5.92 53.38-11.86l13.55 51.69c-25.41 8.46-55.91 16.95-81.34 16.95-95.74 0-126.25-59.32-126.25-149.1zM5391.81 6990.29c0-99.98 87.27-149.15 283.85-171.15.83-61.86-18.68-122.86-97.47-122.86-55.04 0-104.2 26.26-138.94 50.85l-27.97-48.29c39.83-26.31 104.22-60.17 177.94-60.17 111 0 155.06 75.4 155.06 185.55v283.82h-56.76l-5.94-55.94h-2.54c-44.07 37.28-96.6 66.97-154.21 66.97-75.42 0-133.02-45.75-133.02-128.78zm283.85 9.31v-133.89c-161.86 18.68-216.92 57.6-216.92 120.32 0 55.11 38.11 77.1 84.73 77.1 46.61 0 85.58-21.98 132.19-63.52zM6054.14 6990.29c0-99.98 87.26-149.15 283.84-171.15.83-61.86-18.66-122.86-97.45-122.86-55.06 0-104.22 26.26-138.96 50.85l-27.97-48.29c39.83-26.31 104.22-60.17 177.94-60.17 111 0 155.07 75.4 155.07 185.55v283.82h-56.77l-5.94-55.94h-2.54c-44.05 37.28-96.6 66.97-154.21 66.97-75.4 0-133-45.75-133-128.78zm283.84 9.31v-133.89c-161.84 18.68-216.9 57.6-216.9 120.32 0 55.11 38.1 77.1 84.71 77.1 46.61 0 85.58-21.98 132.19-63.52zM6557.23 6650.53h55.94l6.75 66.92h2.54c44.07-43.2 91.51-78.77 154.21-78.77 95.74 0 139.81 61.83 139.81 178.75v290.62H6847v-282.14c0-88.14-27.12-127.07-90.65-127.07-48.31 0-83.03 25.41-130.49 74.55v334.66h-68.63v-457.52zM7034.93 6880.12c0-148.27 94.04-241.45 199.12-241.45 54.21 0 89.8 20.34 131.32 54.23l-3.41-79.64v-179.63h68.63v674.42h-56.76l-6.77-55.06h-1.7c-36.45 36.4-85.58 66.09-141.52 66.09-115.21 0-188.93-86.41-188.93-238.95zm327.04 115.26v-247.42c-41.51-36.44-77.1-50.84-116.92-50.84-77.93 0-138.09 75.38-138.09 182.16 0 112.67 47.44 181.3 131.32 181.3 44.05 0 83.03-22 123.69-65.2zM7785.35 6487.86h86.41l122.01 338.88c15.23 44.09 29.63 88.12 44.9 132.21h4.24c15.25-44.09 28.8-88.12 43.2-132.21l121.16-338.88h86.42v620.19h-65.24v-358.42c0-52.5 5.09-125.39 8.46-179.62h-3.38l-49.16 140.67-121.16 333.84h-48.29l-122-333.84-49.14-140.67h-3.39c3.39 54.23 8.46 127.12 8.46 179.62v358.42h-63.52v-620.19zM8430.73 6990.29c0-99.98 87.26-149.15 283.84-171.15.83-61.86-18.66-122.86-97.45-122.86-55.06 0-104.22 26.26-138.94 50.85l-27.97-48.29c39.81-26.31 104.2-60.17 177.94-60.17 110.99 0 155.06 75.4 155.06 185.55v283.82h-56.77l-5.92-55.94h-2.56c-44.05 37.28-96.59 66.97-154.19 66.97-75.42 0-133.02-45.75-133.02-128.78zm283.84 9.31v-133.89c-161.84 18.68-216.9 57.6-216.9 120.32 0 55.11 38.11 77.1 84.71 77.1 46.61 0 85.58-21.98 132.19-63.52zM8898.23 6880.12c0-153.36 101.69-241.45 217.77-241.45 60.15 0 101.66 25.38 133.87 55.06l-36.44 45.77c-27.12-25.43-56.76-42.37-94.89-42.37-85.58 0-149.14 73.72-149.14 182.99 0 108.46 59.32 181.35 147.44 181.35 43.2 0 82.18-21.2 110.99-46.63l30.52 45.75c-40.69 36.45-91.51 58.49-147.46 58.49-120.3 0-212.66-88.12-212.66-238.95zM9362.39 6433.63H9431v187.22l-2.51 95.77c44.05-42.37 90.65-77.94 153.34-77.94 95.74 0 139.81 61.83 139.81 178.75v290.62h-69.5v-282.14c0-88.14-27.11-127.07-90.65-127.07-48.29 0-83.01 25.41-130.49 74.55v334.66h-68.61v-674.42zM9857.04 6505.64c0-29.63 21.19-47.46 49.99-47.46 27.11 0 49.99 17.83 49.99 47.46 0 27.09-22.88 46.58-49.99 46.58-28.8 0-49.99-19.49-49.99-46.58zm15.23 144.9h68.63v457.52h-68.63v-457.52zM10100.09 6650.53h55.94l6.75 66.92h2.56c44.03-43.2 91.5-78.77 154.19-78.77 95.72 0 139.81 61.83 139.81 178.75v290.62h-69.51v-282.14c0-88.14-27.09-127.07-90.61-127.07-48.29 0-83.03 25.41-130.49 74.55v334.66h-68.63v-457.52zM10576.91 6880.12c0-149.1 99.15-241.45 204.21-241.45 114.38 0 180.47 82.15 180.47 214.36 0 15.25-.83 30.48-3.38 41.49h-312.62c4.21 101.69 65.2 169.49 156.7 169.49 44.92 0 82.2-14.4 116.09-37.27l25.43 45.75c-39.83 25.38-86.41 46.58-150 46.58-120.3 0-216.9-88.95-216.9-238.95zm323.7-35.55c0-98.32-44.09-150-118.65-150-67.73 0-127.9 55.06-137.24 150h255.9zM11272.3 6487.86h70.33v620.19h-70.33zM11509.44 6650.53h55.93l6.77 66.92h2.54c44.03-43.2 91.5-78.77 154.21-78.77 95.72 0 139.81 61.83 139.81 178.75v290.62h-69.51v-282.14c0-88.14-27.09-127.07-90.63-127.07-48.29 0-83.01 25.41-130.49 74.55v334.66h-68.61v-457.52zM12034.55 6969.97V6707.3h-69.46v-52.55l72.01-4.22 7.65-129.66h58.44v129.66h126.27v56.77h-126.27v265.16c0 55.94 16.95 89.83 72.06 89.83 16.95 0 38.1-5.92 53.33-11.86l13.57 51.69c-25.41 8.46-55.89 16.95-81.3 16.95-95.77 0-126.29-59.32-126.29-149.1zM12286.09 6880.12c0-149.1 99.15-241.45 204.21-241.45 114.38 0 180.47 82.15 180.47 214.36 0 15.25-.83 30.48-3.39 41.49h-312.6c4.21 101.69 65.19 169.49 156.7 169.49 44.92 0 82.18-14.4 116.09-37.27l25.41 45.75c-39.81 25.38-86.41 46.58-149.98 46.58-120.3 0-216.9-88.95-216.9-238.95zm323.68-35.55c0-98.32-44.09-150-118.64-150-67.75 0-127.9 55.06-137.24 150h255.88zM12786.7 7024.18v-590.55h68.63v595.61c0 22.87 9.36 32.23 21.2 32.23 4.22 0 7.6 0 16.08-1.71l10.18 53.4c-11.01 3.38-22.03 5.92-41.52 5.92-52.52 0-74.57-33.89-74.57-94.89zM13023.01 7024.18v-590.55h68.63v595.61c0 22.87 9.35 32.23 21.2 32.23 4.22 0 7.6 0 16.08-1.71l10.18 53.4c-11.03 3.38-22.03 5.92-41.54 5.92-52.5 0-74.55-33.89-74.55-94.89zM13244.08 6505.64c0-29.63 21.15-47.46 49.95-47.46 27.14 0 50.02 17.83 50.02 47.46 0 27.09-22.88 46.58-50.02 46.58-28.8 0-49.95-19.49-49.95-46.58zm15.23 144.9h68.63v457.52h-68.63v-457.52zM13450.7 7197.02c0-38.95 25.41-77.11 67.78-105.08v-3.38c-23.7-14.4-41.49-38.95-41.49-75.38 0-38.17 27.94-67.8 50.8-84.75v-3.39c-29.63-23.7-59.27-68.61-59.27-122.84 0-99.15 77.1-163.52 169.44-163.52 25.41 0 47.46 5.94 63.52 11.86h158.47v53.35h-96.6c22.88 22.05 39.83 57.66 39.83 99.15 0 97.43-72.89 160.13-165.22 160.13-22.88 0-49.14-5.92-70.34-16.95-16.95 14.4-30.46 31.35-30.46 57.6 0 29.69 18.61 51.74 81.3 51.74h91.51c105.07 0 157.58 33.01 157.58 108.44 0 83.03-88.95 156.75-227.88 156.75-112.72 0-188.98-44.92-188.98-123.73zm349.11-22.88c0-44.92-33.06-60.15-95.77-60.15h-83.86c-14.4 0-37.27-2.54-58.49-7.65-34.72 24.6-49.95 54.23-49.95 82.2 0 50.84 50.84 83.91 137.24 83.91 91.51 0 150.83-49.19 150.83-98.32zm-59.32-371.94c0-69.51-46.58-111.83-102.52-111.83-56.77 0-102.52 41.49-102.52 111.83 0 68.63 47.46 113.55 102.52 113.55 55.06 0 102.52-44.92 102.52-113.55zM13910.6 6880.12c0-149.1 99.1-241.45 204.18-241.45 114.38 0 180.5 82.15 180.5 214.36 0 15.25-.88 30.48-3.43 41.49h-312.62c4.22 101.69 65.26 169.49 156.75 169.49 44.87 0 82.2-14.4 116.04-37.27l25.43 45.75c-39.83 25.38-86.41 46.58-149.93 46.58-120.32 0-216.92-88.95-216.92-238.95zm323.65-35.55c0-98.32-44.03-150-118.59-150-67.8 0-127.95 55.06-137.31 150h255.9zM14411.18 6650.53h55.94l6.75 66.92h2.56c44.09-43.2 91.5-78.77 154.19-78.77 95.77 0 139.81 61.83 139.81 178.75v290.62h-69.46v-282.14c0-88.14-27.14-127.07-90.67-127.07-48.29 0-83.03 25.41-130.49 74.55v334.66h-68.63v-457.52zM14888.05 6880.12c0-153.36 101.64-241.45 217.73-241.45 60.15 0 101.69 25.38 133.87 55.06l-36.44 45.77c-27.09-25.43-56.77-42.37-94.89-42.37-85.58 0-149.1 73.72-149.1 182.99 0 108.46 59.27 181.35 147.39 181.35 43.2 0 82.2-21.2 111-46.63l30.52 45.75c-40.66 36.45-91.5 58.49-147.44 58.49-120.32 0-212.64-88.12-212.64-238.95zM15297.17 6880.12c0-149.1 99.1-241.45 204.16-241.45 114.38 0 180.52 82.15 180.52 214.36 0 15.25-.88 30.48-3.43 41.49h-312.62c4.21 101.69 65.24 169.49 156.75 169.49 44.87 0 82.18-14.4 116.04-37.27l25.43 45.75c-39.83 25.38-86.41 46.58-149.95 46.58-120.3 0-216.9-88.95-216.9-238.95zm323.65-35.55c0-98.32-44.05-150-118.6-150-67.8 0-127.95 55.06-137.3 150h255.9zM15946.8 7026.75l42.37-48.31c44.92 48.31 107.63 78.77 173.7 78.77 84.75 0 136.43-43.2 136.43-106.75 0-66.95-46.63-88.12-105.91-114.38l-89.83-39.83c-57.6-24.58-126.24-66.95-126.24-157.58 0-94.04 81.32-161.84 191.49-161.84 74.55 0 138.08 31.35 180.45 76.26l-37.27 44.88c-38.11-36.4-83.86-59.32-143.18-59.32-72.01 0-120.32 36.44-120.32 94.92 0 63.54 55.89 87.24 103.35 107.58l89.85 38.15c71.18 31.35 128.78 73.72 128.78 166.06 0 97.43-80.54 173.7-208.44 173.7-88.12 0-161.84-35.6-215.24-92.33zM16436.36 7298.71l14.4-55.94c9.31 3.38 22.88 6.8 35.6 6.8 52.52 0 86.41-44.09 106.75-103.4l10.2-35.57-184.72-460.06h72.01l97.43 261.78c14.4 39.81 30.52 87.29 45.75 128.83h4.26c12.69-41.54 26.26-89.02 38.95-128.83l85.58-261.78h67.78l-174.53 499.89c-30.52 87.24-77.93 157.58-166.88 157.58-20.39 0-38.17-3.38-52.57-9.3zM16868.36 7056.38l34.72-46.6c39.83 33.03 80.49 55.06 138.09 55.06 63.52 0 94.87-33.89 94.87-76.26 0-49.12-55.04-71.18-106.73-89.78-65.26-23.77-138.09-54.23-138.09-132.21 0-71.18 56.72-127.91 155.04-127.91 54.23 0 104.18 22.88 138.98 50.8l-33.08 44.92c-31.35-22.87-64.41-40.66-105.9-40.66-61.03 0-88.95 32.2-88.95 69.46 0 45.75 50.79 63.54 103.35 82.2 66.92 26.26 141.47 52.52 141.47 139.81 0 72.84-57.6 133.87-163.5 133.87-65.26 0-127.07-27.14-170.27-62.69zM17308 6969.97V6707.3h-69.51v-52.55l72.06-4.22 7.58-129.66h58.49v129.66h126.24v56.77h-126.24v265.16c0 55.94 16.96 89.83 72.02 89.83 16.95 0 38.1-5.92 53.38-11.86l13.52 51.69c-25.41 8.46-55.89 16.95-81.32 16.95-95.75 0-126.22-59.32-126.22-149.1zM17559.48 6880.12c0-149.1 99.1-241.45 204.16-241.45 114.38 0 180.52 82.15 180.52 214.36 0 15.25-.88 30.48-3.43 41.49h-312.62c4.21 101.69 65.24 169.49 156.75 169.49 44.87 0 82.18-14.4 116.04-37.27l25.43 45.75c-39.83 25.38-86.42 46.58-149.95 46.58-120.32 0-216.9-88.95-216.9-238.95zm323.63-35.55c0-98.32-44.03-150-118.59-150-67.8 0-127.95 55.06-137.3 150h255.88zM18060.04 6650.53h55.94l6.77 67.75h2.54c39.83-44.03 88.95-79.6 142.35-79.6 71.18 0 108.44 34.74 126.24 88.97 49.12-52.57 97.43-88.97 152.53-88.97 93.18 0 138.92 61.83 138.92 178.75v290.62h-69.46v-282.14c0-88.14-27.97-127.07-88.95-127.07-37.28 0-76.26 24.53-120.32 74.55v334.66h-68.61v-282.14c0-88.14-27.97-127.07-89.85-127.07-35.55 0-76.26 24.53-119.47 74.55v334.66h-68.63v-457.52zM18785.02 7056.38l34.77-46.6c39.83 33.03 80.49 55.06 138.09 55.06 63.54 0 94.89-33.89 94.89-76.26 0-49.12-55.06-71.18-106.75-89.78-65.24-23.77-138.08-54.23-138.08-132.21 0-71.18 56.72-127.91 155.02-127.91 54.23 0 104.2 22.88 138.98 50.8l-33.06 44.92c-31.35-22.87-64.42-40.66-105.91-40.66-61.03 0-88.95 32.2-88.95 69.46 0 45.75 50.8 63.54 103.35 82.2 66.92 26.26 141.47 52.52 141.47 139.81 0 72.84-57.6 133.87-163.5 133.87-65.26 0-127.07-27.14-170.32-62.69zM19425.39 6487.86h70.35v560.87h273.67v59.32h-344.02zM19843.82 6990.29c0-99.98 87.24-149.15 283.82-171.15.88-61.86-18.61-122.86-97.43-122.86-55.06 0-104.18 26.26-138.96 50.85l-27.94-48.29c39.83-26.31 104.2-60.17 177.92-60.17 111 0 155.04 75.4 155.04 185.55v283.82h-56.77l-5.94-55.94h-2.54c-44.03 37.28-96.55 66.97-154.19 66.97-75.4 0-133-45.75-133-128.78zm283.82 9.31v-133.89c-161.79 18.68-216.9 57.6-216.9 120.32 0 55.11 38.15 77.1 84.75 77.1 46.58 0 85.58-21.98 132.16-63.52zM20410.44 7060.58h-1.68l-7.63 47.46h-54.23v-674.42h68.63v187.22l-3.38 83.91c43.2-36.44 94.87-66.09 147.44-66.09 119.47 0 183.01 92.34 183.01 232.98 0 156.75-94.06 247.42-199.96 247.42-42.37 0-91.51-21.2-132.21-58.49zm260.16-188.1c0-103.35-35.62-175.36-127.12-175.36-39.83 0-82.2 22.87-127.95 66.07v247.42c41.54 37.28 85.58 49.97 116.92 49.97 79.66 0 138.14-72.01 138.14-188.1z"/></g><g id="prefix___2674236825248"><path class="prefix__fil0" d="M5638.27 3342.02a102928.181 102928.181 0 00-1284.25-3051.3c-332.06 32.42-663.93 67.51-995.57 105.33-226.33 1108.72-434.18 2218.31-623.44 3328.35 297.93-39.17 596.06-75.97 894.42-110.48 2.42-13.85 4.86-27.64 7.34-41.49 26.47-152.15 53.26-304.26 80.4-456.37 300.9-34.05 601.96-65.79 903.24-95.17 45.75 135.25 91.22 270.54 136.48 405.9 7.25 21.91 14.51 43.79 21.76 65.72a58318.58 58318.58 0 01888.58-78.13c-9.66-24.13-19.3-48.22-28.96-72.35zm-1857.38-819.97c63.04-437.9 128.45-875.77 196.3-1313.61 146.5 415.23 290.83 830.96 433.04 1247.14-209.87 21.03-419.66 43.2-629.34 66.47zM8822.33 1619.08C8782.28 548.91 8252.84 22.72 7237.54 77.68c-436.36 21.91-872.56 48.53-1308.49 79.78 76.94 1073.15 153.88 2146.34 230.82 3219.51 402.49-28.89 805.19-53.54 1208.09-74.03 192.58-8.78 365.54-35.15 519.31-80.04 658.65-190.45 973.69-719.59 935.06-1603.82zm-949.29 15.47c27.57 624.93-182.33 945.43-629.71 968.59-64.29 3.36-128.56 6.84-192.84 10.39-34.15-613.89-68.3-1227.81-102.45-1841.73 63.63-3.57 127.21-6.99 190.83-10.33 484.36-30.36 729.3 263.46 734.17 873.09z"/><path class="prefix__fil0" d="M19401.11 4216.81c-2536.69-374.86-5089.8-580.2-7642.55-616.71-2.54-121.41-5.09-242.81-7.72-364.18.57 0 1.13 0 1.7.03 10.02-410.64 20.08-821.29 30.1-1231.93 29.77-327.75 59.86-655.48 90.34-983.2a56310.958 56310.958 0 00-886.4 842.33c-276.22-289.24-556.52-576.52-840.83-861.82-5.42 0-10.84.03-16.31.03 20.39 328.32 40.47 656.68 60.18 985 .97 413.86 1.96 827.72 2.89 1241.55-1.25 0-2.44 0-3.67.03-6.06 118.19-12.08 236.43-18.11 354.65-2977.77-18.52-5959.22 192.55-8917.56 634.21 157.6-162.74 758.18-345.46 1567.47-503.59 269.4-35.02 539.01-68.11 808.79-99.3 2.42-13.85 4.86-27.64 7.34-41.49 358.04-54.33 736.42-103.23 1120.13-145.64 7.25 21.91 14.51 43.79 21.76 65.72a58318.58 58318.58 0 01888.58-78.13c-9.66-24.13-19.3-48.22-28.96-72.35 173.75-14.66 345.98-27.75 516.28-38.96 1.78 24.61 3.55 49.26 5.31 73.91 402.49-28.89 805.19-53.54 1208.09-74.03 192.58-8.78 365.54-35.15 519.31-80.04 782.82-18.59 1308.07-9.35 1308.07-9.95 58.96-.14 117.86-.23 176.8-.17L9319.64 8.26c405.97-6.61 811.92-9.28 1217.94-7.89a68607.003 68607.003 0 01460.87 787.74 65331.397 65331.397 0 01521.91-776.52c400.4 7.79 800.76 19.46 1201 35.05-41.54 1066.5-83.1 2133.04-124.66 3199.53 2.13.07 4.22.16 6.37.23-.05.23 286.19 2.96 742.32 19.52-.68 13.31-1.38 26.64-2.06 39.95 307.45 15.92 614.79 34.34 922.01 55.13 1.13-16.82 2.25-33.67 3.41-50.49 400.36 24.08 844.51 57.48 1299.45 102.26 133.82 43.98 287.25 72.56 459.94 86.55 148.18 14.25 284.96 17.62 410.3 10.18 1423.21 176.42 2741.5 466.59 2962.67 707.32z"/><path class="prefix__fil0" d="M13510.38 82.46c-55.67 1074.47-111.35 2148.93-167.05 3223.4 307.45 15.92 614.79 34.34 922.01 55.13 72.68-1073.46 145.4-2146.91 218.1-3220.37a60983.57 60983.57 0 00-973.05-58.16zM17235 1967.81c-185.07-169.35-420.89-290.98-706.09-362.73-387.67-92.83-584.08-239.49-587.02-445.94 28.61-158.1 141.29-234.85 338.76-228.79 221.42 19.14 336.42 147.47 345.14 383.48 301.8 31.57 603.45 65.41 904.87 101.59 13.85-661.66-374.31-1039.5-1163.06-1110.42-393.66-36.16-710.4 23-946.67 173.21-236.82 150.24-367.18 383.64-394.37 697.68-13.66 246.85 72.72 467.38 255.99 663.1 183.65 195.89 426.88 327.16 730.81 395.88 364.86 90.7 543.61 229.12 537.97 410.68-21.74 204.04-163.49 294.07-425.39 273.35-237.53-23.45-358.99-168.89-363.99-438.51-298.58-27.49-597.32-52.74-896.2-75.68 4.62 523.91 239.78 857.31 702.46 1008.05 133.82 43.98 287.25 72.56 459.94 86.55 148.18 14.25 284.96 17.62 410.3 10.18 602.97-34.76 946.29-322.87 1028.2-878.93 30.26-271.55-46.15-493.02-231.63-662.75z"/></g><path class="prefix__fil0" d="M14268.75 3310.5c-1.16 16.82-2.28 33.67-3.41 50.49a59060.42 59060.42 0 00-922.01-55.13c.71-13.31 1.38-26.64 2.06-39.95 259.98 9.12 575.1 23.3 923.36 44.59zM16438.43 3509.49c-125.34 7.44-262.15 4.03-410.3-10.18-172.69-13.99-326.12-42.56-459.94-86.55 288.82 28.04 581.57 60.32 870.24 96.72zM5638.27 3342.02c9.66 24.13 19.3 48.22 28.96 72.35-296.35 23.75-592.53 49.82-888.58 78.13-7.25-21.93-14.51-43.84-21.76-65.72 292.56-32.06 588.49-60.48 881.38-84.76zM7887.25 3222.9c-153.76 44.85-326.71 71.21-519.29 80.04-402.91 20.49-805.62 45.14-1208.09 74.03-1.77-24.65-3.53-49.3-5.31-73.91 635.02-44.03 1235.89-68.41 1732.7-80.16zM10558.08 3609.34c75.1-329.45 151.44-658.7 229.05-987.8-61.98-56.74-100.72-137.64-100.2-227.63.9-170.37 144.08-307.9 319.98-305.89 175.57 2.03 315.56 142.77 312.53 313.11-1.52 89.96-42.11 170.32-105.36 225.61 70.17 330.73 139.06 661.54 206.72 992.44-287.56-5.42-575.13-8.67-862.72-9.83z"/></g></svg>